# xmcd
#
# Track frame offsets: 
#        150
#        2808
#        14871
#        28569
#        51078
#        64349
#        85059
#        93998
#        108466
#        114163
#        127241
#        141172
#        145961
#        159238
#        162172
#        176076
#        190460
#        205314
#        220523
#        233951
#        248496
#        261776
#        274497
#        286536
#        297866
#        310180
#        320110
#        332791
#        344427
#
# Disc length: 4729 seconds
#
# Revision: 0
# Processed by: cddbd v1.5.2PL0 Copyright (c) Steve Scherf et al.
# Submitted via: ExactAudioCopyFreeDBPlugin 1.0
#
DISCID=b612771d
DTITLE=Various Artist - Battleground Korea [CD2)
DYEAR=2018
DGENRE=Country
TTITLE0=Newsreel Announcer - Heading For Korea
TTITLE1=The Gospel Pilgrims - Korea (Fightin' In The Foreign Land)
TTITLE2=Bill Cason - Foxhole In Korea
TTITLE3=Steve Rogers - Inchon
TTITLE4=Jimmie Osborne - Thank God For Victory In Korea
TTITLE5=John Carpino - The Ballad Of Chosin
TTITLE6=Oscar Brand and Short Arms - We're Moving On
TTITLE7=J.B. Lenoir - I'm In Korea
TTITLE8=Eric Sevareid and Robert Pierpoint - Robert Pierpoint Under Fire
TTITLE8=In Korea
TTITLE9=Delmore Brothers - Heartbreak Ridge
TTITLE10=Ernest Tubb - A Heartsick Soldier On Heartbreak Ridge
TTITLE11=The Four Lads and Edward R. Murrow - Where The Need Is
TTITLE12=Elton Britt - Korean Mud
TTITLE13=Howdy Doody - Request For Blood Donations
TTITLE14=Tommy (Weepin' And Cryin') Brown - No News From Home
TTITLE15=Sherman 'Blues' Johnson and His Clouds Of Joy - Lost In Korea
TTITLE16=Jack Powers - From A Foxhole
TTITLE17=William Cook and The Marshall Brothers - A Soldier's Prayer
TTITLE18=Rocky Porter - Please Say A Prayer (For The Boys Over There)
TTITLE19=Lightnin' Hopkins - Sad News From Korea
TTITLE20=Sonny Osborne - A Brother In Korea
TTITLE21=The Louvin Brothers - From Mother's Arms To Korea
TTITLE22=Carl Sauceman and The Green Valley Boys - Wrap My Body In Old G
TTITLE22=lory
TTITLE23=Slim Rhodes - Red White And Blue
TTITLE24=Elton Britt and The Skytoppers - Rotation Blues
TTITLE25=Billy Mize - Pusan
TTITLE26=Jim Eanes - A Prisoner Of War
TTITLE27=Kay Kellum and His Dixie Ramblers - When I Get Back
TTITLE28=The Kalvin Brothers - Somewhere In Korea
EXTD=
EXTT0=
EXTT1=
EXTT2=
EXTT3=
EXTT4=
EXTT5=
EXTT6=
EXTT7=
EXTT8=
EXTT9=
EXTT10=
EXTT11=
EXTT12=
EXTT13=
EXTT14=
EXTT15=
EXTT16=
EXTT17=
EXTT18=
EXTT19=
EXTT20=
EXTT21=
EXTT22=
EXTT23=
EXTT24=
EXTT25=
EXTT26=
EXTT27=
EXTT28=
PLAYORDER=
